<svg xmlns="http://www.w3.org/2000/svg" xmlns:xlink="http://www.w3.org/1999/xlink" width="305" height="196" viewBox="0 0 305 196">
    <defs>
        <path id="a" d="M0 .075h304.435V178.63H0z"/>
    </defs>
    <g fill="none" fill-rule="evenodd">
        <path fill="#F8F9FE" d="M3.703 126.89s5.828 43.024 30.981 50.742c25.154 7.719 29.837 2.584 36.273 1.303 6.437-1.28 33.351-3.192 56.749 5.167 23.398 8.36 46.213 11.583 54.405 10.944 8.19-.637 39.198 1.947 56.76-16.022 17.56-17.97 21.66-25.673 21.663-32.094.004-6.421-12.28-10.923-12.28-10.923L3.702 126.89z"/>
        <g transform="translate(0 .567)">
            <mask id="b" fill="#fff">
                <use xlink:href="#a"/>
            </mask>
            <path fill="#F1F3FF" d="M293.646 58.82s-15.41-1.293-28.892-3.868c-13.483-2.576-16.697 3.201-26.324-5.793-9.626-8.995-12.19-18.628-32.735-23.133-20.545-4.506 1.284-.642-34.67-7.724s-41.093-2.59-63.562-10.949c-22.47-8.36-43.658-9.012-55.219-4.524C40.684 7.318 6.004 19.5 1.498 40.687c-4.506 21.187 2.528 76.412 3.168 80.264.64 3.854-6.446 47.513 73.178 42.418 0 0 50.73-5.11 72.557 1.965 21.828 7.074 42.367 22.495 73.839 5.817s55.24-37.855 62.953-51.335c7.712-13.48 19.92-28.884 16.717-43.013-3.203-14.127-5.769-17.339-10.264-17.984" mask="url(#b)"/>
        </g>
        <path fill="#FFF" d="M127.254 156.411c-.703-2.172-1.496-10.554-3.39-25.298-1.893-14.744-13.484-26.83-13.484-26.83s-19.27-9.12-20.676-13.463c-1.406-4.345 1.072-7.066-2.75-15.907-3.822-8.841-14.07-9.363-14.07-9.363L63.8 64.17l1.532-10.094s-5.444-4.957-11.041-8.904-6.76-3.09-10.644-4.713c-3.885-1.622-21.72 7.032-21.72 7.032l11.104 1.684s12.871 30.867 14.125 36.22c1.252 5.355 3.028.46 7.922 2.235 4.893 1.776 7.156 7.282 4.525 11.014-2.632 3.73-3.335 1.559-3.64 3.577 0 0 12.468 9.792 12.945 16.804.479 7.013.45 7.659 4.462 6.4 4.012-1.258 6.798.707 6.798.707s40.498 33.134 47.086 30.278"/>
        <path fill="#9EA0A5" d="M216.652 157.18l-120.288-.063a3.864 3.864 0 0 1-3.85-3.855l.017-34.138a3.864 3.864 0 0 1 3.855-3.85l120.288.062a3.865 3.865 0 0 1 3.85 3.855l-.017 34.139a3.864 3.864 0 0 1-3.855 3.85"/>
        <path fill="#FFF" d="M125.585 147.902l-16.909-.009a3.864 3.864 0 0 1-3.85-3.854l.008-15.678a3.864 3.864 0 0 1 3.854-3.851l16.91.009a3.865 3.865 0 0 1 3.85 3.854l-.009 15.679a3.864 3.864 0 0 1-3.854 3.85M197.135 129.64l-56.612-.03.003-5.083 56.612.03zM181.132 138.782l-40.613-.022.002-5.083 40.613.021zM161.435 147.921l-20.921-.01.002-5.084 20.922.01z"/>
        <path fill="#9EA0A5" d="M216.676 110.414L96.39 110.35a3.864 3.864 0 0 1-3.85-3.854l.016-34.139a3.864 3.864 0 0 1 3.856-3.85l120.287.063a3.864 3.864 0 0 1 3.85 3.854l-.017 34.14a3.864 3.864 0 0 1-3.855 3.85"/>
        <path fill="#FFF" d="M125.61 101.136l-16.91-.01a3.864 3.864 0 0 1-3.85-3.854l.008-15.678a3.865 3.865 0 0 1 3.855-3.85l16.909.008a3.865 3.865 0 0 1 3.85 3.855l-.008 15.678a3.865 3.865 0 0 1-3.855 3.85M197.16 82.873l-56.612-.03.003-5.083 56.612.03zM181.156 92.015l-40.613-.021.003-5.084 40.613.021zM161.46 101.155l-20.922-.011.003-5.084 20.922.011z"/>
    </g>
</svg>
